<svg width="150" height="32" viewBox="0 0 150 32" fill="none" xmlns="http://www.w3.org/2000/svg">
<path d="M11.7241 31.509C7.76552 31.509 4.83897 30.1659 2.94448 27.4797C1.07828 24.7934 0.145172 21.0328 0.145172 16.1976C0.145172 11.3624 1.07828 7.60172 2.94448 4.91552C4.83897 2.22931 7.76552 0.886206 11.7241 0.886206C15.6828 0.886206 18.5952 2.22931 20.4614 4.91552C22.3559 7.60172 23.3031 11.3624 23.3031 16.1976C23.3031 21.0328 22.3559 24.7934 20.4614 27.4797C18.5952 30.1659 15.6828 31.509 11.7241 31.509ZM11.7241 26.3769C13.5338 26.3769 14.7779 25.7124 15.4566 24.3834C16.1634 23.0262 16.5169 21.1459 16.5169 18.7424V13.6103C16.5169 11.2352 16.1634 9.3831 15.4566 8.05414C14.7779 6.6969 13.5338 6.01827 11.7241 6.01827C9.91448 6.01827 8.65621 6.6969 7.94931 8.05414C7.27069 9.3831 6.93138 11.2352 6.93138 13.6103V18.7848C6.93138 21.16 7.27069 23.0262 7.94931 24.3834C8.65621 25.7124 9.91448 26.3769 11.7241 26.3769ZM29.2669 31H22.9896V1.39517H34.4414C35.8834 1.39517 37.17 1.62138 38.301 2.07379C39.4321 2.49793 40.3793 3.12 41.1427 3.94C41.9345 4.76 42.5283 5.74966 42.9241 6.90897C43.32 8.06828 43.5179 9.36897 43.5179 10.811C43.5179 12.9034 43.0655 14.699 42.1607 16.1976C41.2558 17.6962 39.9693 18.6859 38.301 19.1666L44.1117 31H37.1558L32.1934 20.0148H29.2669V31ZM32.9145 15.0948C34.4131 15.0948 35.4452 14.8121 36.0107 14.2466C36.6045 13.681 36.9014 12.7479 36.9014 11.4472V10.1748C36.9014 8.87414 36.6045 7.94103 36.0107 7.37552C35.4452 6.81 34.4131 6.52724 32.9145 6.52724H29.2669V15.0948H32.9145ZM43.9255 31V1.39517H62.842V6.61207H50.2876V13.3983H62.4179V18.6152H50.2876V25.7831H62.842V31H43.9255ZM77.7551 18.6152H70.2903V31H63.8858V1.39517H70.2903V13.3983H77.7551V1.39517H84.1596V31H77.7551V18.6152ZM90.5475 11.32H90.081V31H84.652V1.39517H92.2865L99.0303 21.0752H99.4968V1.39517H104.926V31H97.2913L90.5475 11.32ZM106.012 31V26.2921H112.374V6.1031H106.012V1.39517H125.098V6.1031H118.736V26.2921H125.098V31H106.012ZM135.473 18.6576L132.843 22.3476V31H126.481V1.39517H132.843V13.78H133.183L136.406 8.86L141.623 1.39517H148.749L139.884 13.9072L149.173 31H142.005L135.473 18.6576Z" fill="#1BFF07"/>
</svg>
